<svg width="70" height="70" viewBox="0 0 70 70" fill="none" xmlns="http://www.w3.org/2000/svg">
<path d="M35 70C15.6695 70 0 54.3305 0 35C0 15.6695 15.6695 0 35 0C54.3305 0 70 15.6695 70 35C70 54.3305 54.3305 70 35 70ZM49.441 41.111C50.1865 40.5755 50.8305 39.893 51.331 39.0985C53.452 35.721 52.6085 31.1535 49.441 28.889L35.245 18.746C34.1256 17.9395 32.7817 17.5037 31.402 17.5C27.5905 17.5 24.5 20.7935 24.5 24.857V45.143C24.5 46.6025 24.906 48.027 25.669 49.238C27.7935 52.6155 32.081 53.515 35.2485 51.254L49.441 41.111ZM31.241 24.955L45.4335 35.098L31.2375 45.2375V24.955H31.241Z" fill="white"/>
</svg>
