<svg width="216" height="236" viewBox="0 0 216 236" fill="none" xmlns="http://www.w3.org/2000/svg">
<path d="M14 32L18 36L14 40" stroke="white" stroke-width="2" stroke-miterlimit="10" stroke-linecap="round" stroke-linejoin="round"/>
<path d="M6 36H18" stroke="white" stroke-width="2" stroke-miterlimit="10" stroke-linecap="round" stroke-linejoin="round"/>
<rect width="216" height="235.161" rx="12" fill="#0055B5"/>
<mask id="mask0_3_554" style="mask-type:luminance" maskUnits="userSpaceOnUse" x="0" y="0" width="216" height="236">
<rect width="216" height="235.161" rx="8" fill="white"/>
</mask>
<g mask="url(#mask0_3_554)">
<path fill-rule="evenodd" clip-rule="evenodd" d="M-19.0006 237.999L-18.1605 189.867L7.32805 132.676L64.9015 157.103L89.9065 100.996L147.483 125.422L152.338 114.521C153.539 113.526 154.621 112.291 155.292 110.785C155.822 109.596 155.907 108.327 155.618 107.157L156.23 105.784L156.233 105.785L164.359 87.5507C164.396 87.4676 164.431 87.3835 164.463 87.2994L168.725 77.7291L162.97 75.2849L191.873 64.198L203.272 92.3842L197.513 89.9424L184.399 119.379C183.33 119.972 182.442 120.895 181.914 122.079C181.245 123.581 181.056 125.19 181.128 126.721L163.768 165.686L106.192 141.262L81.187 197.367L23.6135 172.943L-5.48493 238.235L-19.0006 237.999Z" fill="#014087"/>
<path fill-rule="evenodd" clip-rule="evenodd" d="M183.094 134.94C183.094 134.94 181.327 131.572 181.151 127.717C181.081 126.168 181.269 124.539 181.931 123.018C182.454 121.82 183.333 120.885 184.391 120.285C185.06 119.905 185.801 119.659 186.568 119.564L186.939 119.725C186.56 120.015 186.248 120.402 186.044 120.87C184.889 123.521 186.626 126.83 186.626 126.83C187.339 126.55 188.209 125.664 188.649 124.565C188.764 124.995 188.894 125.277 188.894 125.277L189 125.087C189.042 125.029 189.089 124.975 189.141 124.927C189.245 124.829 189.366 124.753 189.491 124.687C189.811 124.52 190.156 124.415 190.462 124.219C190.852 123.969 191.182 123.605 191.385 123.185C191.447 123.059 191.497 122.927 191.534 122.792C191.626 122.455 191.656 122.103 191.622 121.756L191.999 121.919C192.379 122.443 192.672 123.029 192.862 123.648C193.179 124.689 193.198 125.813 192.91 126.863C192.836 127.133 192.736 127.397 192.613 127.65C192.205 128.489 191.548 129.216 190.766 129.716C190.155 130.109 189.464 130.319 188.826 130.653C188.574 130.784 188.332 130.938 188.125 131.132C188.021 131.23 187.925 131.337 187.843 131.453C187.807 131.505 187.603 131.772 187.629 131.832C187.618 131.809 187.366 131.253 187.14 130.409C186.26 132.607 184.52 134.38 183.094 134.94Z" fill="#036666"/>
<path fill-rule="evenodd" clip-rule="evenodd" d="M186.557 126.626C186.557 126.626 184.818 123.381 185.973 120.782C186.176 120.323 186.488 119.944 186.867 119.66L191.551 121.652C191.584 121.993 191.555 122.338 191.463 122.668C191.426 122.801 191.376 122.93 191.314 123.054C191.111 123.466 190.782 123.822 190.391 124.067C190.085 124.259 189.74 124.362 189.421 124.526C189.296 124.59 189.175 124.665 189.071 124.76C189.019 124.808 188.971 124.861 188.93 124.918L188.824 125.103C188.824 125.103 188.694 124.828 188.579 124.405C188.139 125.483 187.269 126.352 186.557 126.626Z" fill="#554187"/>
<path fill-rule="evenodd" clip-rule="evenodd" d="M193.279 122.461L198.455 111.098L193.279 122.461ZM184.955 118.786L193.069 100.377C193.849 98.6056 195.617 97.5595 197.461 97.5917C198.015 97.6014 198.576 97.7085 199.12 97.9231C198.658 97.7406 198.183 97.6359 197.706 97.6039C199.122 98.9018 199.629 100.992 198.814 102.841L191.948 118.419L186.203 115.954L184.955 118.786ZM199.693 108.688L201.762 104.243L199.693 108.688ZM201.975 104.199C203.055 101.899 201.934 99.2224 199.473 98.1794C201.936 99.2229 203.056 101.898 201.975 104.199Z" fill="#554187"/>
<path fill-rule="evenodd" clip-rule="evenodd" d="M194.825 119.806L191.81 118.581L195.635 110.359L193.117 115.772L196.131 116.998L196.843 115.468L194.825 119.806ZM199.508 108.679L196.677 107.418L198.526 103.059C199.331 101.161 198.833 99.018 197.438 97.6878C197.907 97.7203 198.376 97.8273 198.831 98.0142L198.831 98.0143C198.835 98.0158 198.839 98.0174 198.842 98.019C198.843 98.019 198.843 98.0195 198.844 98.0195C198.847 98.0211 198.85 98.0222 198.854 98.0238C198.854 98.0243 198.855 98.0243 198.855 98.0243C198.866 98.0285 198.875 98.0328 198.886 98.037C198.887 98.0375 198.888 98.0386 198.89 98.0391C198.892 98.0402 198.895 98.0407 198.897 98.0418C198.899 98.0428 198.901 98.0439 198.903 98.0444C198.905 98.0454 198.907 98.0465 198.909 98.047C198.911 98.0481 198.913 98.0491 198.916 98.0502C198.918 98.0507 198.92 98.0518 198.922 98.0523C198.924 98.0534 198.926 98.0549 198.929 98.056C198.93 98.0565 198.932 98.0571 198.934 98.0581C198.937 98.0592 198.939 98.0602 198.942 98.0618C198.944 98.0623 198.945 98.0629 198.947 98.0634C198.951 98.0655 198.955 98.0671 198.959 98.0692C198.987 98.0813 199.014 98.094 199.041 98.1066C201.327 99.1797 202.365 101.943 201.356 104.321L199.508 108.679Z" fill="#036666"/>
<path fill-rule="evenodd" clip-rule="evenodd" d="M193.61 122.653L190.816 121.437L192.03 118.641L194.826 119.857L193.61 122.653Z" fill="#036666"/>
<path fill-rule="evenodd" clip-rule="evenodd" d="M196.08 116.983L193.216 115.725L196.953 107.039L199.817 108.297L196.08 116.983Z" fill="#036666"/>
<path fill-rule="evenodd" clip-rule="evenodd" d="M146.033 118.719C145.474 117.298 145.587 114.819 146.593 112.677C145.825 113.088 145.248 113.283 145.225 113.291C145.286 113.27 145.343 112.939 145.355 112.877C145.384 112.738 145.398 112.595 145.398 112.453C145.399 112.169 145.348 111.888 145.273 111.615C145.084 110.921 144.768 110.274 144.64 109.56C144.475 108.649 144.558 107.674 144.894 106.804C144.996 106.542 145.12 106.289 145.267 106.05C145.838 105.124 146.669 104.372 147.644 103.893C148.224 103.608 148.851 103.422 149.49 103.343L149.865 103.506C149.589 103.718 149.352 103.98 149.169 104.277C149.096 104.397 149.033 104.523 148.983 104.654C148.815 105.089 148.773 105.576 148.855 106.032C148.919 106.389 149.077 106.712 149.172 107.06C149.209 107.196 149.235 107.337 149.235 107.479C149.234 107.55 149.228 107.621 149.213 107.691L149.148 107.898C149.148 107.898 149.44 107.801 149.832 107.591C149.329 108.661 149.273 109.901 149.552 110.612C149.552 110.612 153.143 109.622 154.293 106.97C154.496 106.502 154.567 106.01 154.521 105.536L154.89 105.697C155.338 106.318 155.66 107.021 155.837 107.763C156.121 108.948 156.037 110.232 155.515 111.436C154.854 112.96 153.789 114.211 152.607 115.218C149.679 117.714 146.033 118.719 146.033 118.719Z" fill="#036666"/>
<path fill-rule="evenodd" clip-rule="evenodd" d="M149.263 110.504C148.971 109.808 149.028 108.592 149.551 107.543C149.143 107.748 148.838 107.844 148.838 107.844L148.906 107.64C148.921 107.572 148.928 107.502 148.928 107.433C148.929 107.293 148.901 107.155 148.862 107.022C148.763 106.681 148.598 106.364 148.53 106.014C148.444 105.567 148.487 105.089 148.662 104.663C148.714 104.535 148.779 104.411 148.856 104.294C149.047 104.003 149.294 103.747 149.581 103.539L153.492 105.145L154.442 105.535C154.49 106 154.417 106.482 154.206 106.94C153.009 109.538 149.263 110.504 149.263 110.504Z" fill="#554187"/>
<path fill-rule="evenodd" clip-rule="evenodd" d="M147.859 102.666L153.419 90.0487L150.355 97.0019L153.228 98.2343L156.972 89.7376L154.1 88.5051L155.972 84.257C156.753 82.4859 158.521 81.4397 160.364 81.4719C160.918 81.4816 161.479 81.5887 162.022 81.8028C161.561 81.6208 161.086 81.5161 160.61 81.4841C162.026 82.782 162.533 84.8722 161.717 86.7214L154.852 102.298L149.107 99.8339L147.859 102.666ZM164.889 88.0791C165.951 85.7652 164.826 83.0683 162.377 82.0597C164.74 83.0327 165.87 85.5731 164.995 87.8287C164.963 87.9125 164.927 87.9963 164.889 88.0791Z" fill="#554187"/>
<path fill-rule="evenodd" clip-rule="evenodd" d="M152.962 98.4821L150.098 97.2237L153.836 88.5381L156.7 89.7964L152.962 98.4821Z" fill="#554187"/>
<path fill-rule="evenodd" clip-rule="evenodd" d="M197.228 86.665L163.622 163.759L106.343 138.927L81.4406 196.031L24.1647 171.199L-18.2904 268.56L-18.8055 268.551L-17.4071 188.438L7.97658 130.228L65.2525 155.063L90.1547 97.9563L147.434 122.791L168.588 74.248L162.863 71.7624L191.626 60.4684L202.956 89.1471L197.228 86.665Z" fill="white"/>
<path fill-rule="evenodd" clip-rule="evenodd" d="M192.359 123.962C192.482 123.709 192.583 123.447 192.657 123.177C192.945 122.13 192.926 121.011 192.608 119.973C192.293 118.946 191.689 118.012 190.877 117.303C190.42 116.905 189.9 116.58 189.343 116.339C186.381 115.062 182.936 116.407 181.648 119.344C179.331 124.63 182.816 131.228 182.816 131.228C184.245 130.67 185.99 128.903 186.872 126.712C187.103 127.571 187.363 128.13 187.363 128.13C187.334 128.073 187.54 127.804 187.576 127.753C187.659 127.637 187.755 127.53 187.859 127.433C188.067 127.239 188.309 127.086 188.562 126.955C189.202 126.622 189.895 126.413 190.508 126.022C191.291 125.523 191.95 124.799 192.359 123.962Z" fill="#FEC600"/>
<path fill-rule="evenodd" clip-rule="evenodd" d="M191.052 119.644C191.113 119.513 191.164 119.378 191.201 119.238C191.345 118.698 191.336 118.12 191.177 117.585C191.02 117.055 190.719 116.573 190.312 116.207C190.084 116.002 189.824 115.834 189.546 115.71C188.065 115.052 186.342 115.747 185.698 117.263C184.537 119.992 186.278 123.396 186.278 123.396C186.993 123.108 187.866 122.196 188.308 121.064C188.422 121.507 188.552 121.797 188.552 121.797L188.659 121.602C188.701 121.542 188.748 121.487 188.8 121.436C188.905 121.336 189.026 121.257 189.152 121.19C189.472 121.017 189.818 120.909 190.125 120.707C190.518 120.45 190.847 120.076 191.052 119.644Z" fill="#E2362F"/>
<path fill-rule="evenodd" clip-rule="evenodd" d="M193.629 118.653L184.94 114.961L193.116 96.5879C194.158 94.2459 196.948 93.1743 199.348 94.1934C201.747 95.2126 202.848 97.9373 201.805 100.279L193.629 118.653Z" fill="#15CAB8"/>
<path opacity="0.429408" fill-rule="evenodd" clip-rule="evenodd" d="M197.825 93.8472C199.26 95.1637 199.774 97.2846 198.948 99.1609L191.986 114.967L194.899 116.217L201.86 100.411C202.908 98.0319 201.802 95.2602 199.39 94.2251C198.88 94.0061 198.353 93.8825 197.825 93.8472Z" fill="#D3FFE3"/>
<path fill-rule="evenodd" clip-rule="evenodd" d="M144.513 103.121C144.615 102.859 144.739 102.607 144.887 102.369C145.46 101.446 146.293 100.696 147.27 100.219C148.237 99.7477 149.33 99.5485 150.402 99.6546C151.003 99.714 151.594 99.8686 152.148 100.109C155.094 101.386 156.444 104.802 155.163 107.739C152.858 113.025 145.656 114.999 145.656 114.999C145.096 113.582 145.209 111.111 146.217 108.976C145.431 109.394 144.844 109.588 144.844 109.588C144.906 109.569 144.963 109.237 144.976 109.175C145.005 109.036 145.019 108.894 145.019 108.752C145.02 108.469 144.968 108.189 144.893 107.917C144.704 107.225 144.388 106.58 144.258 105.868C144.093 104.96 144.177 103.988 144.513 103.121Z" fill="#FEC600"/>
<path fill-rule="evenodd" clip-rule="evenodd" d="M148.779 101.039C148.832 100.904 148.897 100.774 148.974 100.651C149.273 100.175 149.708 99.7879 150.217 99.5418C150.722 99.2982 151.292 99.196 151.851 99.2506C152.165 99.2816 152.473 99.3614 152.762 99.4853C154.3 100.145 155.004 101.908 154.336 103.424C153.134 106.152 149.377 107.17 149.377 107.17C149.084 106.439 149.143 105.163 149.669 104.061C149.259 104.277 148.953 104.377 148.953 104.377L149.021 104.164C149.036 104.092 149.044 104.019 149.044 103.946C149.045 103.8 149.017 103.655 148.978 103.514C148.879 103.157 148.714 102.824 148.646 102.457C148.56 101.989 148.604 101.487 148.779 101.039Z" fill="#E2362F"/>
<path fill-rule="evenodd" clip-rule="evenodd" d="M147.735 98.8346L156.424 102.526L164.6 84.1529C165.643 81.811 164.542 79.0863 162.142 78.0671C159.743 77.0475 156.953 78.1196 155.911 80.4615L147.735 98.8346Z" fill="#15CAB8"/>
<path opacity="0.429408" fill-rule="evenodd" clip-rule="evenodd" d="M160.13 77.8143C161.565 79.1307 162.079 81.2516 161.253 83.128L154.292 98.9344L157.204 100.184L164.165 84.3785C165.213 81.999 164.107 79.2273 161.695 78.1921C161.185 77.9731 160.658 77.8495 160.13 77.8143Z" fill="#D3FFE3"/>
<path fill-rule="evenodd" clip-rule="evenodd" d="M194.929 116.193L186.222 112.453L184.961 115.319L193.667 119.06L194.929 116.193Z" fill="#44A6E9"/>
<path fill-rule="evenodd" clip-rule="evenodd" d="M149.017 96.3261L157.724 100.067L156.463 102.933L147.756 99.1921L149.017 96.3261Z" fill="#44A6E9"/>
<path fill-rule="evenodd" clip-rule="evenodd" d="M191.76 114.884L190.541 117.682L193.343 118.898L194.562 116.099L191.76 114.884Z" fill="#3488C2"/>
<path fill-rule="evenodd" clip-rule="evenodd" d="M154.564 98.7697L153.345 101.567L156.147 102.783L157.366 99.9847L154.564 98.7697Z" fill="#3488C2"/>
</g>
<g clip-path="url(#clip0_3_554)">
<rect x="21.0017" y="179.419" width="174.194" height="34.8387" rx="4" fill="#FEC600"/>
<path d="M78.6349 202.209C77.9115 202.209 77.2582 202.086 76.6749 201.838C76.0962 201.586 75.6179 201.229 75.2399 200.767C74.8665 200.301 74.6239 199.748 74.5119 199.108L76.0379 198.877C76.1919 199.493 76.5139 199.974 77.0039 200.319C77.4939 200.66 78.0655 200.83 78.7189 200.83C79.1249 200.83 79.4982 200.767 79.8389 200.641C80.1795 200.511 80.4525 200.326 80.6579 200.088C80.8679 199.846 80.9729 199.556 80.9729 199.22C80.9729 199.038 80.9402 198.877 80.8749 198.737C80.8142 198.597 80.7279 198.476 80.6159 198.373C80.5085 198.266 80.3755 198.175 80.2169 198.1C80.0629 198.021 79.8925 197.953 79.7059 197.897L77.1229 197.134C76.8709 197.06 76.6142 196.964 76.3529 196.847C76.0915 196.726 75.8512 196.57 75.6319 196.378C75.4172 196.182 75.2422 195.942 75.1069 195.657C74.9715 195.368 74.9039 195.018 74.9039 194.607C74.9039 193.987 75.0625 193.462 75.3799 193.032C75.7019 192.598 76.1359 192.272 76.6819 192.052C77.2279 191.828 77.8392 191.716 78.5159 191.716C79.1972 191.726 79.8062 191.847 80.3429 192.08C80.8842 192.314 81.3322 192.65 81.6869 193.088C82.0462 193.522 82.2935 194.05 82.4289 194.67L80.8609 194.936C80.7909 194.558 80.6415 194.234 80.4129 193.963C80.1842 193.688 79.9042 193.478 79.5729 193.333C79.2415 193.184 78.8822 193.107 78.4949 193.102C78.1215 193.093 77.7785 193.149 77.4659 193.27C77.1579 193.392 76.9105 193.562 76.7239 193.781C76.5419 194.001 76.4509 194.253 76.4509 194.537C76.4509 194.817 76.5325 195.044 76.6959 195.216C76.8592 195.389 77.0599 195.527 77.2979 195.629C77.5405 195.727 77.7809 195.809 78.0189 195.874L79.8809 196.399C80.1142 196.465 80.3779 196.553 80.6719 196.665C80.9705 196.773 81.2575 196.924 81.5329 197.12C81.8129 197.316 82.0439 197.578 82.2259 197.904C82.4079 198.226 82.4989 198.632 82.4989 199.122C82.4989 199.631 82.3962 200.079 82.1909 200.466C81.9855 200.849 81.7032 201.171 81.3439 201.432C80.9892 201.689 80.5785 201.883 80.1119 202.013C79.6452 202.144 79.1529 202.209 78.6349 202.209ZM88.3166 201.999C87.8406 202.093 87.374 202.132 86.9166 202.118C86.4593 202.104 86.051 202.016 85.6916 201.852C85.3323 201.689 85.0616 201.432 84.8796 201.082C84.7163 200.77 84.6276 200.452 84.6136 200.13C84.6043 199.804 84.5996 199.435 84.5996 199.024V192.339H86.0696V198.954C86.0696 199.258 86.072 199.521 86.0766 199.745C86.086 199.969 86.135 200.158 86.2236 200.312C86.3916 200.602 86.6576 200.767 87.0216 200.809C87.3903 200.847 87.822 200.83 88.3166 200.76V201.999ZM83.1506 195.615V194.439H88.3166V195.615H83.1506ZM92.0455 202.209C91.4855 202.209 91.0165 202.107 90.6385 201.901C90.2605 201.691 89.9735 201.416 89.7775 201.075C89.5862 200.73 89.4905 200.352 89.4905 199.941C89.4905 199.559 89.5582 199.223 89.6935 198.933C89.8289 198.644 90.0295 198.399 90.2955 198.198C90.5615 197.993 90.8882 197.827 91.2755 197.701C91.6115 197.603 91.9919 197.517 92.4165 197.442C92.8412 197.368 93.2869 197.298 93.7535 197.232C94.2249 197.167 94.6915 197.102 95.1535 197.036L94.6215 197.33C94.6309 196.738 94.5049 196.299 94.2435 196.014C93.9869 195.725 93.5435 195.58 92.9135 195.58C92.5169 195.58 92.1529 195.674 91.8215 195.86C91.4902 196.042 91.2592 196.346 91.1285 196.77L89.7635 196.35C89.9502 195.702 90.3049 195.186 90.8275 194.803C91.3549 194.421 92.0549 194.229 92.9275 194.229C93.6042 194.229 94.1922 194.346 94.6915 194.579C95.1955 194.808 95.5642 195.172 95.7975 195.671C95.9189 195.919 95.9935 196.18 96.0215 196.455C96.0495 196.731 96.0635 197.027 96.0635 197.344V201.999H94.7685V200.27L95.0205 200.494C94.7079 201.073 94.3089 201.505 93.8235 201.789C93.3429 202.069 92.7502 202.209 92.0455 202.209ZM92.3045 201.012C92.7199 201.012 93.0769 200.94 93.3755 200.795C93.6742 200.646 93.9145 200.457 94.0965 200.228C94.2785 200 94.3975 199.762 94.4535 199.514C94.5329 199.29 94.5772 199.038 94.5865 198.758C94.6005 198.478 94.6075 198.254 94.6075 198.086L95.0835 198.261C94.6215 198.331 94.2015 198.394 93.8235 198.45C93.4455 198.506 93.1025 198.562 92.7945 198.618C92.4912 198.67 92.2205 198.733 91.9825 198.807C91.7819 198.877 91.6022 198.961 91.4435 199.059C91.2895 199.157 91.1659 199.276 91.0725 199.416C90.9839 199.556 90.9395 199.727 90.9395 199.927C90.9395 200.123 90.9885 200.305 91.0865 200.473C91.1845 200.637 91.3339 200.767 91.5345 200.865C91.7352 200.963 91.9919 201.012 92.3045 201.012ZM97.8812 201.999V194.439H99.1832V196.273L99.0012 196.035C99.0946 195.793 99.2159 195.571 99.3652 195.37C99.5146 195.165 99.6872 194.997 99.8832 194.866C100.075 194.726 100.287 194.619 100.52 194.544C100.758 194.465 101.001 194.418 101.248 194.404C101.496 194.386 101.734 194.397 101.962 194.439V195.811C101.715 195.746 101.44 195.727 101.136 195.755C100.838 195.783 100.562 195.879 100.31 196.042C100.072 196.196 99.8832 196.383 99.7432 196.602C99.6079 196.822 99.5099 197.067 99.4492 197.337C99.3886 197.603 99.3582 197.886 99.3582 198.184V201.999H97.8812ZM107.621 201.999C107.145 202.093 106.679 202.132 106.221 202.118C105.764 202.104 105.356 202.016 104.996 201.852C104.637 201.689 104.366 201.432 104.184 201.082C104.021 200.77 103.932 200.452 103.918 200.13C103.909 199.804 103.904 199.435 103.904 199.024V192.339H105.374V198.954C105.374 199.258 105.377 199.521 105.381 199.745C105.391 199.969 105.44 200.158 105.528 200.312C105.696 200.602 105.962 200.767 106.326 200.809C106.695 200.847 107.127 200.83 107.621 200.76V201.999ZM102.455 195.615V194.439H107.621V195.615H102.455ZM112.018 201.999V191.919H113.502L118.465 199.409V191.919H119.949V201.999H118.465L113.502 194.502V201.999H112.018ZM125.186 202.209C124.43 202.209 123.774 202.039 123.219 201.698C122.663 201.358 122.234 200.889 121.931 200.291C121.632 199.689 121.483 198.996 121.483 198.212C121.483 197.424 121.637 196.731 121.945 196.133C122.253 195.531 122.684 195.065 123.24 194.733C123.795 194.397 124.444 194.229 125.186 194.229C125.942 194.229 126.597 194.4 127.153 194.74C127.708 195.081 128.137 195.55 128.441 196.147C128.744 196.745 128.896 197.433 128.896 198.212C128.896 199.001 128.742 199.696 128.434 200.298C128.13 200.896 127.701 201.365 127.146 201.705C126.59 202.041 125.937 202.209 125.186 202.209ZM125.186 200.83C125.909 200.83 126.448 200.588 126.803 200.102C127.162 199.612 127.342 198.982 127.342 198.212C127.342 197.424 127.16 196.794 126.796 196.322C126.436 195.846 125.9 195.608 125.186 195.608C124.696 195.608 124.292 195.72 123.975 195.944C123.657 196.164 123.422 196.469 123.268 196.861C123.114 197.249 123.037 197.699 123.037 198.212C123.037 199.006 123.219 199.64 123.583 200.116C123.947 200.592 124.481 200.83 125.186 200.83ZM131.771 201.999L129.461 194.432L130.91 194.439L132.492 199.626L134.088 194.439H135.348L136.944 199.626L138.526 194.439H139.968L137.658 201.999H136.482L134.718 196.525L132.947 201.999H131.771Z" fill="#222222"/>
</g>
<path d="M22.376 21.8H24.52V33H22.376V21.8ZM38.4026 24.36C39.3733 24.36 40.136 24.6587 40.6906 25.256C41.2453 25.8427 41.5226 26.6427 41.5226 27.656V33H39.4266V28.264C39.4266 27.656 39.256 27.1813 38.9146 26.84C38.584 26.488 38.1306 26.312 37.5546 26.312C36.8933 26.3333 36.3653 26.5733 35.9706 27.032C35.5866 27.4907 35.3946 28.072 35.3946 28.776V33H33.2986V28.264C33.2986 27.656 33.1333 27.1813 32.8026 26.84C32.472 26.488 32.0186 26.312 31.4426 26.312C30.7706 26.3333 30.2373 26.5733 29.8426 27.032C29.4586 27.4907 29.2666 28.072 29.2666 28.776V33H27.1866V24.44H29.2666V26.024C29.832 24.936 30.8346 24.3813 32.2746 24.36C33.0213 24.36 33.6453 24.5413 34.1466 24.904C34.6586 25.256 35.016 25.7573 35.2186 26.408C35.7626 25.064 36.824 24.3813 38.4026 24.36ZM48.8829 24.376C49.6829 24.376 50.3869 24.5627 50.9949 24.936C51.6135 25.2987 52.0882 25.8107 52.4189 26.472C52.7602 27.1333 52.9309 27.896 52.9309 28.76C52.9309 29.6133 52.7655 30.3653 52.4349 31.016C52.1042 31.6667 51.6349 32.1733 51.0269 32.536C50.4189 32.8987 49.7149 33.08 48.9149 33.08C48.2749 33.08 47.7095 32.9573 47.2189 32.712C46.7282 32.456 46.3229 32.088 46.0029 31.608V36.104H43.9229V24.44H46.0029V25.848C46.3122 25.368 46.7069 25.0053 47.1869 24.76C47.6775 24.504 48.2429 24.376 48.8829 24.376ZM48.4189 31.288C49.1229 31.288 49.6989 31.048 50.1469 30.568C50.5949 30.0773 50.8189 29.4533 50.8189 28.696C50.8189 27.9387 50.5949 27.32 50.1469 26.84C49.6989 26.36 49.1229 26.12 48.4189 26.12C47.7042 26.12 47.1229 26.36 46.6749 26.84C46.2269 27.32 46.0029 27.9387 46.0029 28.696C46.0029 29.464 46.2269 30.088 46.6749 30.568C47.1229 31.048 47.7042 31.288 48.4189 31.288ZM56.8135 26.088C57.1015 25.5333 57.4908 25.112 57.9815 24.824C58.4828 24.5253 59.0642 24.3707 59.7255 24.36V26.376C58.8402 26.3227 58.1308 26.5307 57.5975 27C57.0748 27.4587 56.8135 28.0827 56.8135 28.872V33H54.7335V24.44H56.8135V26.088ZM64.9306 24.376C65.816 24.376 66.5946 24.5573 67.2666 24.92C67.9493 25.2827 68.4773 25.7947 68.8506 26.456C69.2346 27.1067 69.4266 27.8587 69.4266 28.712C69.4266 29.576 69.2346 30.3387 68.8506 31C68.4773 31.6613 67.9493 32.1733 67.2666 32.536C66.5946 32.8987 65.816 33.08 64.9306 33.08C64.0346 33.08 63.2453 32.8987 62.5626 32.536C61.88 32.1733 61.3466 31.6613 60.9626 31C60.5893 30.3387 60.4026 29.576 60.4026 28.712C60.4026 27.8587 60.5893 27.1067 60.9626 26.456C61.3466 25.7947 61.88 25.2827 62.5626 24.92C63.2453 24.5573 64.0346 24.376 64.9306 24.376ZM64.9306 26.152C64.2053 26.152 63.6186 26.392 63.1706 26.872C62.7226 27.352 62.4986 27.976 62.4986 28.744C62.4986 29.512 62.7226 30.136 63.1706 30.616C63.6186 31.096 64.2053 31.336 64.9306 31.336C65.6346 31.336 66.2106 31.096 66.6586 30.616C67.1066 30.136 67.3306 29.512 67.3306 28.744C67.3306 27.976 67.1066 27.352 66.6586 26.872C66.2106 26.392 65.6346 26.152 64.9306 26.152ZM69.6246 24.456L71.8006 24.44L74.0406 30.952L76.2326 24.44H78.3286L75.0646 33H72.9206L69.6246 24.456ZM82.8015 24.376C84.1668 24.376 85.1908 24.7653 85.8735 25.544C86.5668 26.3227 86.9135 27.416 86.9135 28.824C86.9135 29.1013 86.9082 29.3093 86.8975 29.448H80.5775C80.7162 30.056 80.9988 30.536 81.4255 30.888C81.8628 31.2293 82.3962 31.4 83.0255 31.4C83.4628 31.4 83.8788 31.32 84.2735 31.16C84.6788 30.9893 85.0308 30.7493 85.3295 30.44L86.4495 31.608C86.0228 32.0773 85.5002 32.44 84.8815 32.696C84.2735 32.952 83.5962 33.08 82.8495 33.08C81.9748 33.08 81.2015 32.8987 80.5295 32.536C79.8682 32.1733 79.3562 31.6667 78.9935 31.016C78.6308 30.3547 78.4495 29.5973 78.4495 28.744C78.4495 27.8907 78.6308 27.1333 78.9935 26.472C79.3668 25.8107 79.8842 25.2987 80.5455 24.936C81.2068 24.5627 81.9588 24.376 82.8015 24.376ZM85.0095 28.056C84.9882 27.4267 84.7802 26.9253 84.3855 26.552C83.9908 26.1787 83.4682 25.992 82.8175 25.992C82.2095 25.992 81.6975 26.1787 81.2815 26.552C80.8762 26.9147 80.6255 27.416 80.5295 28.056H85.0095ZM101.712 21.8L97.6321 29.336V33H95.4881V29.416L91.3121 21.8H93.4881L96.5441 27.064L99.5521 21.8H101.712ZM105.868 24.376C106.753 24.376 107.532 24.5573 108.204 24.92C108.887 25.2827 109.415 25.7947 109.788 26.456C110.172 27.1067 110.364 27.8587 110.364 28.712C110.364 29.576 110.172 30.3387 109.788 31C109.415 31.6613 108.887 32.1733 108.204 32.536C107.532 32.8987 106.753 33.08 105.868 33.08C104.972 33.08 104.183 32.8987 103.5 32.536C102.817 32.1733 102.284 31.6613 101.9 31C101.527 30.3387 101.34 29.576 101.34 28.712C101.34 27.8587 101.527 27.1067 101.9 26.456C102.284 25.7947 102.817 25.2827 103.5 24.92C104.183 24.5573 104.972 24.376 105.868 24.376ZM105.868 26.152C105.143 26.152 104.556 26.392 104.108 26.872C103.66 27.352 103.436 27.976 103.436 28.744C103.436 29.512 103.66 30.136 104.108 30.616C104.556 31.096 105.143 31.336 105.868 31.336C106.572 31.336 107.148 31.096 107.596 30.616C108.044 30.136 108.268 29.512 108.268 28.744C108.268 27.976 108.044 27.352 107.596 26.872C107.148 26.392 106.572 26.152 105.868 26.152ZM120.075 24.44V33H117.979V31.416C117.403 32.5253 116.411 33.08 115.003 33.08C114.043 33.08 113.286 32.7867 112.731 32.2C112.176 31.6133 111.899 30.8133 111.899 29.8V24.44H113.995V29.192C113.995 29.7893 114.155 30.2587 114.475 30.6C114.806 30.9413 115.259 31.112 115.835 31.112C116.496 31.1013 117.019 30.8667 117.403 30.408C117.787 29.9493 117.979 29.368 117.979 28.664V24.44H120.075ZM124.751 26.088C125.039 25.5333 125.428 25.112 125.919 24.824C126.42 24.5253 127.002 24.3707 127.663 24.36V26.376C126.778 26.3227 126.068 26.5307 125.535 27C125.012 27.4587 124.751 28.0827 124.751 28.872V33H122.671V24.44H124.751V26.088ZM22.376 45.8H24.52V55.064H29.352V57H22.376V45.8ZM34.5203 48.376C35.8856 48.376 36.9096 48.7653 37.5923 49.544C38.2856 50.3227 38.6323 51.416 38.6323 52.824C38.6323 53.1013 38.6269 53.3093 38.6163 53.448H32.2963C32.4349 54.056 32.7176 54.536 33.1443 54.888C33.5816 55.2293 34.1149 55.4 34.7443 55.4C35.1816 55.4 35.5976 55.32 35.9923 55.16C36.3976 54.9893 36.7496 54.7493 37.0483 54.44L38.1683 55.608C37.7416 56.0773 37.2189 56.44 36.6003 56.696C35.9923 56.952 35.3149 57.08 34.5683 57.08C33.6936 57.08 32.9203 56.8987 32.2483 56.536C31.5869 56.1733 31.0749 55.6667 30.7122 55.016C30.3496 54.3547 30.1683 53.5973 30.1683 52.744C30.1683 51.8907 30.3496 51.1333 30.7122 50.472C31.0856 49.8107 31.6029 49.2987 32.2643 48.936C32.9256 48.5627 33.6776 48.376 34.5203 48.376ZM36.7283 52.056C36.7069 51.4267 36.4989 50.9253 36.1043 50.552C35.7096 50.1787 35.1869 49.992 34.5363 49.992C33.9283 49.992 33.4163 50.1787 33.0003 50.552C32.5949 50.9147 32.3443 51.416 32.2483 52.056H36.7283ZM45.477 57V55.96C45.1783 56.3333 44.7943 56.616 44.325 56.808C43.8557 57 43.317 57.096 42.709 57.096C42.1117 57.096 41.5837 56.984 41.125 56.76C40.677 56.5253 40.3303 56.2053 40.085 55.8C39.8397 55.3947 39.717 54.9413 39.717 54.44C39.717 53.64 39.9997 53.016 40.565 52.568C41.1303 52.1093 41.9303 51.8747 42.965 51.864H45.461V51.64C45.461 51.1387 45.2957 50.7493 44.965 50.472C44.6343 50.1947 44.1543 50.056 43.525 50.056C42.7143 50.056 41.8663 50.3227 40.981 50.856L40.229 49.416C40.901 49.0427 41.509 48.776 42.053 48.616C42.6077 48.4453 43.253 48.36 43.989 48.36C45.0983 48.36 45.957 48.6267 46.565 49.16C47.1837 49.6933 47.4983 50.44 47.509 51.4L47.525 57H45.477ZM43.205 55.496C43.8023 55.496 44.3143 55.3573 44.741 55.08C45.1677 54.792 45.4077 54.44 45.461 54.024V53.256H43.301C42.7463 53.256 42.3357 53.3413 42.069 53.512C41.813 53.672 41.685 53.9387 41.685 54.312C41.685 54.6747 41.8183 54.9627 42.085 55.176C42.3623 55.3893 42.7357 55.496 43.205 55.496ZM51.9385 50.088C52.2265 49.5333 52.6158 49.112 53.1065 48.824C53.6078 48.5253 54.1892 48.3707 54.8505 48.36V50.376C53.9652 50.3227 53.2558 50.5307 52.7225 51C52.1998 51.4587 51.9385 52.0827 51.9385 52.872V57H49.8585V48.44H51.9385V50.088ZM61.4636 48.36C62.445 48.36 63.2183 48.6587 63.7836 49.256C64.349 49.8427 64.6316 50.6427 64.6316 51.656V57H62.5356V52.264C62.5356 51.6667 62.365 51.1973 62.0236 50.856C61.6823 50.504 61.2183 50.328 60.6316 50.328C59.9383 50.3387 59.389 50.5733 58.9836 51.032C58.589 51.4907 58.3916 52.0773 58.3916 52.792V57H56.3116V48.44H58.3916V50.04C58.9783 48.9413 60.0023 48.3813 61.4636 48.36ZM66.9679 48.44H69.0479V57H66.9679V48.44ZM67.9919 44.76C68.3332 44.76 68.6159 44.8773 68.8399 45.112C69.0639 45.3467 69.1759 45.6453 69.1759 46.008C69.1759 46.36 69.0639 46.6533 68.8399 46.888C68.6159 47.1227 68.3332 47.24 67.9919 47.24C67.6505 47.24 67.3679 47.1227 67.1439 46.888C66.9199 46.6533 66.8079 46.36 66.8079 46.008C66.8079 45.6453 66.9199 45.3467 67.1439 45.112C67.3679 44.8773 67.6505 44.76 67.9919 44.76ZM76.7761 48.36C77.7575 48.36 78.5308 48.6587 79.0961 49.256C79.6615 49.8427 79.9441 50.6427 79.9441 51.656V57H77.8481V52.264C77.8481 51.6667 77.6775 51.1973 77.3361 50.856C76.9948 50.504 76.5308 50.328 75.9441 50.328C75.2508 50.3387 74.7015 50.5733 74.2961 51.032C73.9015 51.4907 73.7041 52.0773 73.7041 52.792V57H71.6241V48.44H73.7041V50.04C74.2908 48.9413 75.3148 48.3813 76.7761 48.36ZM90.1044 48.44V56.184C90.1044 56.9947 89.9177 57.6987 89.5444 58.296C89.1817 58.904 88.659 59.368 87.9764 59.688C87.3044 60.0187 86.5204 60.184 85.6244 60.184C84.323 60.184 83.1177 59.8053 82.0084 59.048L82.8404 57.544C83.651 58.1413 84.5417 58.44 85.5124 58.44C86.2804 58.44 86.8884 58.2427 87.3364 57.848C87.795 57.4533 88.0244 56.9147 88.0244 56.232V55.224C87.7364 55.6613 87.363 55.9973 86.9044 56.232C86.4457 56.456 85.9124 56.568 85.3044 56.568C84.5577 56.568 83.8964 56.3973 83.3204 56.056C82.7444 55.704 82.2964 55.2187 81.9764 54.6C81.6564 53.9707 81.4964 53.2507 81.4964 52.44C81.4964 51.64 81.6564 50.936 81.9764 50.328C82.2964 49.7093 82.7444 49.2293 83.3204 48.888C83.8964 48.5467 84.5577 48.376 85.3044 48.376C85.9017 48.376 86.4297 48.4933 86.8884 48.728C87.3577 48.9627 87.7364 49.2933 88.0244 49.72V48.44H90.1044ZM85.7524 54.936C86.4244 54.936 86.9684 54.712 87.3844 54.264C87.811 53.8053 88.0244 53.2133 88.0244 52.488C88.0244 51.7627 87.811 51.176 87.3844 50.728C86.9684 50.2693 86.4244 50.04 85.7524 50.04C85.0804 50.04 84.531 50.2693 84.1044 50.728C83.6884 51.1867 83.475 51.7733 83.4644 52.488C83.475 53.2133 83.6884 53.8053 84.1044 54.264C84.531 54.712 85.0804 54.936 85.7524 54.936ZM96.5479 45.8H104.756V47.672H98.6919V50.44H104.132V52.312H98.6919V55.128H104.948V57H96.5479V45.8ZM110.614 46.824C110.294 46.824 110.027 46.9147 109.814 47.096C109.611 47.2773 109.51 47.5493 109.51 47.912V48.792H111.654V50.312H109.51V57H107.43V50.312H106.31V48.792H107.43V47.976C107.43 47.3467 107.569 46.8133 107.846 46.376C108.123 45.928 108.491 45.592 108.95 45.368C109.419 45.144 109.926 45.032 110.47 45.032C111.003 45.032 111.526 45.1547 112.038 45.4L111.67 47.08C111.243 46.9093 110.891 46.824 110.614 46.824ZM116.536 46.824C116.216 46.824 115.949 46.9147 115.736 47.096C115.533 47.2773 115.432 47.5493 115.432 47.912V48.792H117.576V50.312H115.432V57H113.352V50.312H112.232V48.792H113.352V47.976C113.352 47.3467 113.491 46.8133 113.768 46.376C114.045 45.928 114.413 45.592 114.872 45.368C115.341 45.144 115.848 45.032 116.392 45.032C116.925 45.032 117.448 45.1547 117.96 45.4L117.592 47.08C117.165 46.9093 116.813 46.824 116.536 46.824ZM118.808 48.44H120.888V57H118.808V48.44ZM119.832 44.76C120.173 44.76 120.456 44.8773 120.68 45.112C120.904 45.3467 121.016 45.6453 121.016 46.008C121.016 46.36 120.904 46.6533 120.68 46.888C120.456 47.1227 120.173 47.24 119.832 47.24C119.491 47.24 119.208 47.1227 118.984 46.888C118.76 46.6533 118.648 46.36 118.648 46.008C118.648 45.6453 118.76 45.3467 118.984 45.112C119.208 44.8773 119.491 44.76 119.832 44.76ZM129.356 51.144C128.78 50.5147 128.033 50.2 127.116 50.2C126.423 50.2 125.857 50.4347 125.42 50.904C124.993 51.3733 124.78 51.9813 124.78 52.728C124.78 53.496 124.993 54.1147 125.42 54.584C125.857 55.0533 126.423 55.288 127.116 55.288C128.14 55.288 128.908 54.952 129.42 54.28L130.716 55.352C130.332 55.9067 129.825 56.3333 129.196 56.632C128.567 56.9307 127.836 57.08 127.004 57.08C126.161 57.08 125.409 56.8987 124.748 56.536C124.097 56.1733 123.591 55.6667 123.228 55.016C122.865 54.3547 122.684 53.5973 122.684 52.744C122.684 51.88 122.865 51.1173 123.228 50.456C123.601 49.7947 124.113 49.2827 124.764 48.92C125.425 48.5573 126.183 48.376 127.036 48.376C127.815 48.376 128.508 48.5147 129.116 48.792C129.735 49.0587 130.236 49.4427 130.62 49.944L129.356 51.144ZM132.499 48.44H134.579V57H132.499V48.44ZM133.523 44.76C133.864 44.76 134.147 44.8773 134.371 45.112C134.595 45.3467 134.707 45.6453 134.707 46.008C134.707 46.36 134.595 46.6533 134.371 46.888C134.147 47.1227 133.864 47.24 133.523 47.24C133.182 47.24 132.899 47.1227 132.675 46.888C132.451 46.6533 132.339 46.36 132.339 46.008C132.339 45.6453 132.451 45.3467 132.675 45.112C132.899 44.8773 133.182 44.76 133.523 44.76ZM140.723 48.376C142.089 48.376 143.113 48.7653 143.795 49.544C144.489 50.3227 144.835 51.416 144.835 52.824C144.835 53.1013 144.83 53.3093 144.819 53.448H138.499C138.638 54.056 138.921 54.536 139.347 54.888C139.785 55.2293 140.318 55.4 140.947 55.4C141.385 55.4 141.801 55.32 142.195 55.16C142.601 54.9893 142.953 54.7493 143.251 54.44L144.371 55.608C143.945 56.0773 143.422 56.44 142.803 56.696C142.195 56.952 141.518 57.08 140.771 57.08C139.897 57.08 139.123 56.8987 138.451 56.536C137.79 56.1733 137.278 55.6667 136.915 55.016C136.553 54.3547 136.371 53.5973 136.371 52.744C136.371 51.8907 136.553 51.1333 136.915 50.472C137.289 49.8107 137.806 49.2987 138.467 48.936C139.129 48.5627 139.881 48.376 140.723 48.376ZM142.931 52.056C142.91 51.4267 142.702 50.9253 142.307 50.552C141.913 50.1787 141.39 49.992 140.739 49.992C140.131 49.992 139.619 50.1787 139.203 50.552C138.798 50.9147 138.547 51.416 138.451 52.056H142.931ZM151.776 48.36C152.757 48.36 153.531 48.6587 154.096 49.256C154.661 49.8427 154.944 50.6427 154.944 51.656V57H152.848V52.264C152.848 51.6667 152.677 51.1973 152.336 50.856C151.995 50.504 151.531 50.328 150.944 50.328C150.251 50.3387 149.701 50.5733 149.296 51.032C148.901 51.4907 148.704 52.0773 148.704 52.792V57H146.624V48.44H148.704V50.04C149.291 48.9413 150.315 48.3813 151.776 48.36ZM163.168 51.144C162.592 50.5147 161.846 50.2 160.928 50.2C160.235 50.2 159.67 50.4347 159.232 50.904C158.806 51.3733 158.592 51.9813 158.592 52.728C158.592 53.496 158.806 54.1147 159.232 54.584C159.67 55.0533 160.235 55.288 160.928 55.288C161.952 55.288 162.72 54.952 163.232 54.28L164.528 55.352C164.144 55.9067 163.638 56.3333 163.008 56.632C162.379 56.9307 161.648 57.08 160.816 57.08C159.974 57.08 159.222 56.8987 158.56 56.536C157.91 56.1733 157.403 55.6667 157.04 55.016C156.678 54.3547 156.496 53.5973 156.496 52.744C156.496 51.88 156.678 51.1173 157.04 50.456C157.414 49.7947 157.926 49.2827 158.576 48.92C159.238 48.5573 159.995 48.376 160.848 48.376C161.627 48.376 162.32 48.5147 162.928 48.792C163.547 49.0587 164.048 49.4427 164.432 49.944L163.168 51.144ZM169.976 58.072C169.709 58.776 169.325 59.304 168.824 59.656C168.333 60.0187 167.746 60.2 167.064 60.2C166.648 60.2 166.269 60.136 165.928 60.008C165.597 59.8907 165.266 59.6987 164.936 59.432L165.832 57.848C166.034 57.9973 166.221 58.104 166.392 58.168C166.562 58.2427 166.744 58.28 166.936 58.28C167.501 58.28 167.917 57.992 168.184 57.416L168.44 56.856L164.904 48.44H167.064L169.496 54.664L171.72 48.44H173.816L169.976 58.072Z" fill="white"/>
<defs>
<clipPath id="clip0_3_554">
<rect width="174.194" height="34.8387" fill="white" transform="translate(21.0009 179.419)"/>
</clipPath>
</defs>
</svg>
