<svg width="24" height="24" viewBox="0 0 24 24" fill="none" xmlns="http://www.w3.org/2000/svg">
<path d="M4.09046 7.63199L4.09099 7.63158L9.48046 3.43199C9.48052 3.43195 9.48058 3.4319 9.48064 3.43185C10.0059 3.0234 10.7418 2.78674 11.5188 2.76852C12.2958 2.75031 13.0437 2.95217 13.5896 3.33422C13.5897 3.33428 13.5898 3.33434 13.5899 3.3344L19.7696 7.66422L19.7712 7.66528C20.1413 7.92324 20.5195 8.37738 20.8064 8.92704C21.0933 9.47665 21.25 10.0472 21.25 10.5V17.78C21.25 19.6769 19.6946 21.24 17.79 21.24H6.21C4.30653 21.24 2.75 19.6781 2.75 17.77V10.36C2.75 9.94045 2.89059 9.39947 3.15082 8.86909C3.4109 8.33901 3.75418 7.89354 4.09046 7.63199Z" fill="#0055B5" stroke="#0055B5" stroke-width="1.5"/>
<mask id="path-2-inside-1_3_289" fill="white">
<path d="M12 17.99V14.99V17.99Z"/>
</mask>
<path d="M11 17.99C11 18.5423 11.4477 18.99 12 18.99C12.5523 18.99 13 18.5423 13 17.99H11ZM13 14.99C13 14.4377 12.5523 13.99 12 13.99C11.4477 13.99 11 14.4377 11 14.99H13ZM13 17.99V14.99H11V17.99H13Z" fill="white" mask="url(#path-2-inside-1_3_289)"/>
</svg>
