<svg width="24" height="24" viewBox="0 0 24 24" fill="none" xmlns="http://www.w3.org/2000/svg">
<path d="M14.5 12C14.5 13.933 12.933 15.5 11 15.5C9.067 15.5 7.5 13.933 7.5 12C7.5 10.067 9.067 8.5 11 8.5C12.933 8.5 14.5 10.067 14.5 12Z" stroke="#A6A6A6" stroke-width="1.5"/>
<path d="M20.011 14.0968C20.5329 13.9561 20.7939 13.8857 20.8969 13.7511C21 13.6166 21 13.4001 21 12.9672V11.0335C21 10.6006 21 10.3841 20.8969 10.2496C20.7938 10.115 20.5329 10.0446 20.011 9.90389C18.0606 9.3779 16.8399 7.33882 17.3433 5.40118C17.4817 4.8683 17.5509 4.60187 17.4848 4.4456C17.4187 4.28933 17.2291 4.18165 16.8497 3.96627L15.125 2.98704C14.7528 2.7757 14.5667 2.67003 14.3997 2.69253C14.2326 2.71503 14.0442 2.90304 13.6672 3.27904C12.208 4.73479 9.7936 4.73473 8.33434 3.27895C7.95743 2.90294 7.76898 2.71494 7.60193 2.69243C7.43489 2.66993 7.24877 2.7756 6.87653 2.98694L5.15184 3.96618C4.77253 4.18154 4.58287 4.28922 4.51678 4.44546C4.45068 4.60171 4.51987 4.86818 4.65825 5.40111C5.16137 7.33881 3.93972 9.37794 1.98902 9.90391C1.46712 10.0446 1.20617 10.115 1.10308 10.2495C1 10.3841 1 10.6006 1 11.0335V12.9672C1 13.4001 1 13.6166 1.10308 13.7511C1.20615 13.8857 1.46711 13.9561 1.98902 14.0968C3.9394 14.6228 5.16008 16.6619 4.65672 18.5995C4.51829 19.1324 4.44907 19.3988 4.51516 19.5551C4.58126 19.7114 4.77092 19.8191 5.15025 20.0344L6.87495 21.0137C7.24721 21.225 7.43334 21.3307 7.6004 21.3082C7.76746 21.2857 7.95588 21.0976 8.33271 20.7216C9.7927 19.2647 12.2088 19.2646 13.6689 20.7215C14.0457 21.0976 14.2341 21.2856 14.4012 21.3081C14.5682 21.3306 14.7544 21.2249 15.1266 21.0136L16.8513 20.0343C17.2307 19.819 17.4204 19.7113 17.4864 19.555C17.5525 19.3987 17.4833 19.1323 17.3448 18.5994C16.8412 16.6619 18.0609 14.6229 20.011 14.0968Z" stroke="#A6A6A6" stroke-width="1.5" stroke-linecap="round"/>
</svg>
